<?xml version="1.0" standalone="no"?>
<!DOCTYPE svg PUBLIC "-//W3C//DTD SVG 20010904//EN"
 "http://www.w3.org/TR/2001/REC-SVG-20010904/DTD/svg10.dtd">
<svg version="1.0" xmlns="http://www.w3.org/2000/svg"
 width="700.000000pt" height="700.000000pt" viewBox="0 0 700.000000 700.000000"
 preserveAspectRatio="xMidYMid meet">
<metadata>
Created by potrace 1.11, written by Peter Selinger 2001-2013
</metadata>
<g transform="translate(0.000000,700.000000) scale(0.100000,-0.100000)"
fill="#000000" stroke="none">
<path d="M3360 6110 c-280 -101 -709 -254 -800 -285 -52 -18 -147 -52 -210
-75 -63 -23 -173 -62 -245 -86 -71 -25 -139 -49 -150 -54 -11 -5 -92 -35 -180
-66 -88 -31 -216 -76 -285 -101 -112 -40 -226 -81 -485 -173 -114 -40 -114
-40 -110 -58 1 -9 6 -46 10 -82 4 -36 9 -78 11 -95 2 -16 6 -52 9 -80 3 -27 8
-66 10 -85 2 -19 7 -60 10 -90 3 -30 8 -72 10 -92 3 -21 7 -55 10 -75 2 -21 7
-60 9 -88 3 -27 10 -90 16 -140 6 -49 13 -110 16 -135 3 -25 7 -61 10 -80 3
-19 7 -57 10 -85 2 -27 6 -63 8 -80 3 -16 7 -55 10 -85 4 -30 9 -71 11 -90 6
-45 16 -134 20 -182 2 -21 6 -50 9 -65 3 -15 8 -58 11 -95 3 -37 7 -75 9 -85
2 -10 7 -49 10 -88 4 -38 9 -81 11 -95 2 -14 9 -70 15 -125 6 -55 13 -118 16
-140 2 -22 7 -60 9 -85 3 -25 8 -58 10 -75 2 -16 7 -63 11 -104 3 -41 8 -81 9
-90 2 -9 6 -41 10 -71 3 -30 8 -71 11 -90 3 -19 7 -57 9 -85 3 -27 7 -70 10
-95 3 -25 8 -61 10 -80 2 -19 7 -55 10 -80 5 -46 10 -84 20 -180 3 -30 8 -64
10 -75 2 -11 4 -30 4 -41 1 -16 19 -31 69 -58 65 -35 147 -80 224 -124 21 -12
68 -38 105 -58 37 -21 230 -127 428 -237 198 -110 383 -212 410 -227 28 -15
77 -42 110 -60 33 -18 69 -39 80 -45 11 -7 45 -26 75 -42 30 -17 75 -41 100
-55 25 -14 172 -96 327 -182 l283 -156 52 29 c79 43 228 125 269 149 21 11 65
35 99 54 33 18 69 38 78 43 16 9 301 167 400 222 23 13 63 35 90 49 26 15 112
63 192 107 80 44 179 99 220 122 41 23 100 56 130 72 310 172 674 373 676 375
3 4 11 61 19 133 3 33 8 74 10 90 2 17 6 57 10 90 4 33 8 71 10 85 2 14 7 50
10 80 12 117 16 156 20 170 2 8 7 49 10 90 4 41 8 86 10 100 2 14 6 50 10 80
3 30 8 66 10 80 2 14 7 57 10 95 3 39 8 77 10 85 2 8 6 47 10 85 3 39 8 77 10
85 2 8 6 44 10 80 3 36 7 75 9 85 2 11 7 54 11 95 4 41 8 77 10 80 1 3 6 46
10 95 4 50 8 92 10 95 1 3 6 37 9 75 4 39 9 77 11 85 2 8 6 44 10 80 3 36 8
81 10 100 3 19 7 58 10 85 3 28 8 66 10 85 2 19 7 60 10 90 3 30 7 71 10 90 2
19 7 60 10 90 3 30 8 62 10 70 2 8 7 51 10 94 3 44 7 82 9 85 2 3 7 40 11 81
3 41 8 82 10 90 2 8 7 49 10 90 3 41 8 82 10 90 2 8 6 47 10 85 3 39 8 77 11
86 3 10 -3 20 -13 24 -20 8 -575 206 -1013 362 -162 57 -383 136 -490 174
-107 39 -240 86 -295 106 -55 19 -149 53 -210 75 -60 22 -159 57 -220 78 -60
21 -141 51 -180 65 -38 15 -77 28 -85 30 -8 2 -35 11 -59 19 -24 9 -44 16 -45
15 0 0 -62 -22 -136 -49z"/>
</g>
</svg>
