<?xml version="1.0" encoding="utf-8"?>
<!-- Generator: Adobe Illustrator 18.0.0, SVG Export Plug-In . SVG Version: 6.00 Build 0)  -->
<!DOCTYPE svg PUBLIC "-//W3C//DTD SVG 1.1//EN" "http://www.w3.org/Graphics/SVG/1.1/DTD/svg11.dtd">
<svg version="1.1" id="Layer_1" xmlns="http://www.w3.org/2000/svg" xmlns:xlink="http://www.w3.org/1999/xlink" x="0px" y="0px"
	 viewBox="0 0 300 300" enable-background="new 0 0 300 300" xml:space="preserve">
<polygon fill="#20B67F" points="150,3.1 150,3.1 150,3.1 13.2,51.9 34.1,232.7 150,296.9 150,296.9 150,296.9 265.9,232.7 
	286.8,51.9 "/>
<polygon fill="#1B976B" points="150,3.1 150,35.7 150,35.6 150,184.4 150,184.4 150,296.9 150,296.9 265.9,232.7 286.8,51.9 "/>
<g>
	<path fill="#FFFFFF" d="M228,170.8H73.4c-3.9,0-7-3.2-7-7v-28.2c0-3.9,3.2-7,7-7H228c3.9,0,7,3.2,7,7v28.2
		C235.1,167.6,231.9,170.8,228,170.8z M229.5,162.3V137c0-1.5-1.2-2.7-2.7-2.7H74.6c-1.5,0-2.7,1.2-2.7,2.7v25.3
		c0,1.5,1.2,2.7,2.7,2.7h152.2C228.3,165,229.5,163.8,229.5,162.3z"/>
	<path fill="#FFFFFF" d="M148,160.9H78.6c-1.1,0-2.1-0.9-2.1-2.1v-17.9c0-1.1,0.9-2.1,2.1-2.1H148c1.1,0,2.1,0.9,2.1,2.1v17.9
		C150.1,160,149.1,160.9,148,160.9z"/>
</g>
</svg>
