<?xml version="1.0" encoding="utf-8"?>
<!-- Generator: Adobe Illustrator 18.0.0, SVG Export Plug-In . SVG Version: 6.00 Build 0)  -->
<!DOCTYPE svg PUBLIC "-//W3C//DTD SVG 1.1//EN" "http://www.w3.org/Graphics/SVG/1.1/DTD/svg11.dtd">
<svg version="1.1" id="Layer_1" xmlns="http://www.w3.org/2000/svg" xmlns:xlink="http://www.w3.org/1999/xlink" x="0px" y="0px"
	 viewBox="0 0 300 300" enable-background="new 0 0 300 300" xml:space="preserve">
<polygon fill="#20B67F" points="150,3.1 150,3.1 150,3.1 13.2,51.9 34.1,232.7 150,296.9 150,296.9 150,296.9 265.9,232.7 
	286.8,51.9 "/>
<polygon fill="#1B976B" points="150,3.1 150,35.7 150,35.6 150,184.4 150,184.4 150,296.9 150,296.9 265.9,232.7 286.8,51.9 "/>
<path fill="#FFFFFF" d="M237.3,173h-175c-6.6,0-12-5.4-12-12V139c0-6.6,5.4-12,12-12h175c6.6,0,12,5.4,12,12V161
	C249.3,167.6,243.9,173,237.3,173z M244,160.6v-21c0-4.3-3.5-7.9-7.9-7.9H63.2c-4.3,0-7.9,3.5-7.9,7.9v21c0,4.3,3.5,7.9,7.9,7.9
	h172.9C240.5,168.5,244,164.9,244,160.6z"/>
<path fill="#FFFFFF" d="M146.1,163.1h-82c-2.1,0-3.8-1.7-3.8-3.8v-18.7c0-2.1,1.7-3.8,3.8-3.8h82c2.1,0,3.8,1.7,3.8,3.8v18.7
	C149.9,161.4,148.2,163.1,146.1,163.1z"/>
</svg>
