<?xml version="1.0" encoding="UTF-8" standalone="no"?>
<!DOCTYPE svg PUBLIC "-//W3C//DTD SVG 1.1//EN" "http://www.w3.org/Graphics/SVG/1.1/DTD/svg11.dtd">
<svg version="1.1" xmlns="http://www.w3.org/2000/svg" xmlns:xlink="http://www.w3.org/1999/xlink" preserveAspectRatio="xMidYMid meet" viewBox="0 0 640 640" width="150" height="150"><defs><path d="M320 76.8L320 76.8L81.66 161.79L118.02 476.93L320 588.8L320 588.8L320 588.8L521.98 476.93L558.34 161.79L320 76.8L320 76.8Z" id="b3lje2O08j"></path><radialGradient id="gradienteqx7iUrGj" gradientUnits="userSpaceOnUse" cx="320" cy="238.39" r="512"><stop style="stop-color: #2ee0a0;stop-opacity: 1" offset="0%"></stop><stop style="stop-color: #010000;stop-opacity: 1" offset="100%"></stop></radialGradient><path d="M320 133.63L320 133.38L320 392.7L320 392.7L320 588.8L320 588.8L521.98 476.93L558.34 161.79L320 76.8L320 76.8L320 133.63Z" id="a2irBWs5h"></path><path d="M396.85 318.62C396.85 318.62 396.85 318.62 396.85 318.62C396.85 335.89 396.85 345.49 396.85 347.41C396.85 347.41 396.85 347.41 396.85 347.41C255.89 347.41 177.58 347.41 161.92 347.41C161.92 347.41 161.92 347.41 161.92 347.41C161.92 330.13 161.92 320.54 161.92 318.62C161.92 318.62 161.92 318.62 161.92 318.62C302.88 318.62 381.19 318.62 396.85 318.62Z" id="bQb8H3JKw"></path><path d="M144.66 301.05L495.34 301.05L495.34 311.05L144.66 311.05L144.66 301.05Z" id="a4s5Es0Bv5"></path><path d="M486.49 301.05L496.49 301.05L496.49 361.6L486.49 361.6L486.49 301.05Z" id="g3NqtK0iy"></path><path d="M143.51 354.55L496.48 354.49L496.49 364.49L143.52 364.55L143.51 354.55Z" id="dZPDcyfoE"></path><path d="M143.51 301.05L153.51 301.05L153.51 364.55L143.51 364.55L143.51 301.05Z" id="b1UCbRiiLD"></path></defs><g><g><g><use xlink:href="#b3lje2O08j" opacity="1" fill="url(#gradienteqx7iUrGj)"></use><g><use xlink:href="#b3lje2O08j" opacity="1" fill-opacity="0" stroke="#000000" stroke-width="1" stroke-opacity="0"></use></g></g><g><use xlink:href="#a2irBWs5h" opacity="1" fill="#ffffff" fill-opacity="0.14"></use><g><use xlink:href="#a2irBWs5h" opacity="1" fill-opacity="0" stroke="#000000" stroke-width="1" stroke-opacity="0"></use></g></g><g><g><use xlink:href="#bQb8H3JKw" opacity="1" fill="#ffffff" fill-opacity="1"></use><g><use xlink:href="#bQb8H3JKw" opacity="1" fill-opacity="0" stroke="#000000" stroke-width="1" stroke-opacity="0"></use></g></g><g><g><use xlink:href="#a4s5Es0Bv5" opacity="1" fill="#ffffff" fill-opacity="1"></use></g><g><use xlink:href="#g3NqtK0iy" opacity="1" fill="#ffffff" fill-opacity="1"></use></g><g><use xlink:href="#dZPDcyfoE" opacity="1" fill="#ffffff" fill-opacity="1"></use></g><g><use xlink:href="#b1UCbRiiLD" opacity="1" fill="#ffffff" fill-opacity="1"></use></g></g></g></g></g></svg>